<svg id="Layer_1" data-name="Layer 1" xmlns="http://www.w3.org/2000/svg" viewBox="0 0 121.33 121.33"><title>dougnutChart</title><path d="M125.72,205,73.18,235.35a60.66,60.66,0,0,1,22.21-82.87,58,58,0,0,1,30.33-8.13Z" transform="translate(-65.05 -144.35)" fill="#de0a2a"/><path d="M125.72,205l52.53,30.33a60.66,60.66,0,0,1-82.86,22.2,58.05,58.05,0,0,1-22.21-22.2Z" transform="translate(-65.05 -144.35)" fill="#f3922b"/><path d="M125.72,205V144.35A60.66,60.66,0,0,1,186.38,205a58,58,0,0,1-8.13,30.33Z" transform="translate(-65.05 -144.35)" fill="#54a4db"/><circle cx="60.95" cy="60.65" r="45" fill="#fff"/></svg>